<?xml version="1.0"?><svg version="1.2" baseProfile="tiny-ps" viewBox="0 0 300 300" xmlns="http://www.w3.org/2000/svg" xmlns:xlink="http://www.w3.org/1999/xlink"><title>ganz lebendig</title><g><g fill="#fff" transform="matrix(.1 0 0 -.1 0 300)"><path d="M0 1500V0h3000v3000H0V1500z"/></g><g fill="#ebe9e0" transform="matrix(.1 0 0 -.1 0 300)"><path d="m1222 1724-33-14 11-21 11-20-3-107c-2-59-7-115-12-124l-8-18h94l-6 23c-3 12-6 84-6 160v137l-7-1c-5 0-23-7-41-15zm333-2-39-18 12-8 12-7v-229l20-20c11-11 25-20 30-20h10v160c0 88-1 160-2 160-2 0-21-9-43-18zm875 3-35-13 5-13c3-8 6-74 8-146l3-133h79v8c0 4-4 12-10 18l-9 9-3 141-3 141-35-12zm134-9c-3-8-4-23-2-33l3-18h60v60l-28 3-27 3-6-15zM128 1600l-30-31 5-37 6-37 22-17c12-10 29-18 39-18h18l-16 44-16 44 16 41 16 41h-15c-8 0-28-14-45-30zm120-11 16-41-16-44-16-44h13c27 0 46 13 61 42l15 29-6 30-7 29-25 20c-14 11-31 20-39 20h-12l16-41zm202 21 20-20v-149l20-11 21-11 19 6c20 6 28 25 11 25h-9l-4 69-4 70-18 20-19 21h-57l20-20zm176 0-40-16 13-9 13-8-4-78-5-79h74l-4 98c-3 53-5 100-6 103s-20-1-41-11zm92 0 22-21v-138l-10-6-10-6 5-10 6-9h89v9c0 6-4 13-10 16l-10 6v135l-16 22-15 22h-73l22-20zm152-2v-21l20 18c11 10 20 20 20 22 0 1-9 3-20 3h-20v-22zm46-65c-26-49-49-96-52-106l-6-19 29 4 28 3 53 103 53 102h-60l-45-87zm448 75c-12-5-28-21-35-35l-14-25 1-40 1-40 27-27 26-26h89l18 18 17 17h-73l-21 22-20 22v23c0 13 7 40 15 60 8 19 15 37 15 39 0 7-25 3-46-8zm77-9 11-21-4-34-4-34h69l-6 38-6 37-22 18c-12 9-28 17-35 17h-15l12-21zm219-11 20-33v-80l-21-34-20-33 28 6c15 4 39 18 52 31l24 24v94l-31 29-32 28h-40l20-32zm149 3-29-29v-42c0-23 5-50 10-61 13-24 61-49 93-49h25l23 20 24 19-36 1h-36l-18 20-19 21 1 33c1 18 8 47 17 65l17 31h-43l-29-29zm96-26v-55h77l-6 28c-8 34-38 76-57 80l-14 3v-56zm141 35-40-16 13-9 13-8-4-78-5-79h74l-4 98c-3 53-5 100-6 103s-20-1-41-11zm92 0 22-21v-138l-10-6c-5-3-10-10-10-16v-9h89l6 9 5 10-10 6-10 6v135l-16 22-15 22h-73l22-20zm173 6c-45-25-63-84-41-141l10-26 36-15c20-8 38-13 40-11s-5 21-16 42c-25 49-25 71 0 120 11 22 20 41 20 42 0 7-27 1-49-11zm402-6-33-20-1-22c-2-44 3-63 24-85l20-23h38l-11 21c-6 11-12 37-12 58v38l11 21c21 39 12 42-36 12zm103-7 14-28v-71l-16-22-15-22h42l24 25 25 24v68l-26 27-27 26h-36l15-27zm-2455 3-13-15 7-21 6-20h47l13 16 13 16-11 16c-5 10-19 18-30 20l-20 3-12-15zm2210 3-23-9 8-18c11-22 11-122 0-145l-9-18 42 3c23 2 41 6 41 11v187l-17-1c-10 0-29-5-42-10zm-2183-75-28-15-6-23c-3-14-4-33-2-43l3-18 26-9 27-9 16 6 17 7-17 24-16 25 16 32c9 18 16 34 16 36 0 7-27 1-52-13zm594-86c-18-18-15-28 8-28h20v20c0 23-10 26-28 8zm-864-23-11-25 17-19 17-19 71-17 70-18 7-20 8-21 17 26 16 25-6 17c-9 23-50 43-108 51l-49 8-18 18-19 19-12-25zm2574 5c-5-14-7-31-4-38 7-19 50-38 115-52l57-11v-41l13 4c6 3 16 17 22 32l9 26-19 20-20 19-68 15-68 14-14 18-14 19-9-25zm-2559-97-13-5v-18c0-22 16-35 53-44l27-6v9c0 5-7 11-15 15-8 3-15 12-15 19 0 19-22 36-37 30zm2566-9-12-15 19-19c10-10 33-21 49-25l30-6-22 17-23 16v36l-14 5-15 6-12-15z"/></g><g fill="#f9d022" transform="matrix(.1 0 0 -.1 0 300)"><path d="m1215 1716-29-12 12-8 12-7v-235l-12-12-12-12h89l-3 150-3 150h-12c-7-1-25-7-42-14zm341 5-20-8 3-114 2-114 12-25 12-25 18-3 17-3v301l-12-1c-7 0-22-4-32-8zm859-5-29-12 12-8 12-7v-259h72l-6 16c-3 9-6 76-6 150v134h-12c-7-1-26-7-43-14zm155-1-12-14 4-18 3-18h48l10 17 11 16-13 16c-17 20-35 20-51 1zM143 1611l-30-19-6-28-5-28 9-22c9-24 56-61 65-51 3 3 1 14-5 25-14 26-14 73-1 108 14 35 10 37-27 15zm104-11 15-32-5-36c-3-21-8-45-12-54l-7-18h10c5 0 21 9 36 21l26 20v77l-17 20c-10 11-28 23-40 27l-22 6 16-31zm206 12 17-19v-139l12-12c7-7 22-12 35-12h23v9c0 6-5 13-11 16l-10 7 6 27 6 28-10 44-10 43-17 13c-10 7-27 13-37 13h-20l16-18zm271-1 18-19-4-81-3-81h70l-3 62c-3 81-8 103-28 122l-15 16h-52l17-19zm146-3v-21l20 18c11 10 20 20 20 22 0 1-9 3-20 3h-20v-22zm40-78-50-100h55l48 90c26 49 47 94 47 99v11h-50l-50-100zm464 90c-12-5-29-19-38-32l-16-22v-39c0-21 5-47 11-59l11-20 35-14 35-15 34 11c43 14 44 25 2 26l-32 1-18 23-18 22v32c1 17 7 42 15 56 24 41 20 47-21 30zm70-46 1-54h65v23c0 26-23 63-49 76l-18 10 1-55zm206 51c0-3 8-17 17-31l16-26v-86l-17-26-16-26h41l24 25 25 24v41c0 52-13 76-50 95-31 16-40 18-40 10zm181-9c-31-17-50-53-51-93v-31l25-30 25-30 27-5 28-5 30 13 30 13-17 1c-9 1-28 6-42 12l-25 12-12 29-12 29 12 37c7 20 15 43 17 50l6 12h-9c-4-1-19-7-32-14zm76-13c4-16 7-40 7-55l-1-28h57v61l-25 24c-13 14-29 25-35 25h-10l7-27zm237 8 18-19-4-81-3-81h70l-7 83c-3 45-7 83-7 84-1 1-8 9-17 17l-15 16h-52l17-19zm181 10c-11-5-29-19-40-31l-20-22v-86l24-26 24-26h50l-17 19-18 19-5 41-6 40 22 41c21 41 20 44-14 31zm415 2c-8-3-25-15-37-26l-23-20v-68l25-24c13-14 31-25 39-25h14l-16 41-16 41 16 44c8 24 15 44 14 43l-16-6zm76-10c4-10 9-37 12-59l4-42-12-22c-14-26-8-34 19-25l21 6 15 29c8 16 15 39 15 50v22l-29 29c-16 16-35 29-41 29h-12l8-17zm-2455-11-10-19 13-18 12-17 20 4 19 3v60l-22 3-22 3-10-19zm264 7-20-10v-169h77l-6 16c-3 9-6 51-6 95v79l-12-1c-7 0-22-5-33-10zm1420 0-20-10v-169h77l-6 16c-3 9-6 51-6 95v79l-12-1c-7 0-22-5-33-10zm533-1-28-10 10-18 10-19v-107l-12-12-12-12h87l-7 31c-3 17-6 60-6 95v64l-7-1c-5 0-20-5-35-11zm-2202-89-26-20v-47l13-11c8-6 24-12 38-13l24-3-4 15c-7 23-5 63 3 83l8 17h-15c-8 0-26-9-41-21zm610-74-20-15h44v15c0 18 0 18-24 0zm-870-21-6-15 10-18c11-21 42-34 118-51l52-12v-30l13 4 12 5 3 24 3 25-19 17-18 16-69 15-70 15-3 10c-5 16-19 13-26-5zm2579 6-7-11 6-24 6-24 52-16c28-8 60-15 70-15s27-9 37-19l20-20 11 14 12 14-7 21-7 22-31 13c-18 7-52 16-77 20l-45 7-17 15-16 14-7-11zM125 1319l-7-10 18-20 17-19h40l-16 18c-10 10-17 24-17 30v12h-14c-8 0-18-5-21-11zm2575-7c0-10 5-23 12-30l12-12 26 1 25 1-13 5c-7 3-17 16-22 29l-10 24h-30v-18z"/></g><g fill="#ccc8b4" transform="matrix(.1 0 0 -.1 0 300)"><path d="m1215 1716-29-12 12-8 12-7v-235l-12-12-12-12h89l-3 150-3 150h-12c-7-1-25-7-42-14zm341 5-20-8 3-114 2-114 12-25 12-25 18-3 17-3v301l-12-1c-7 0-22-4-32-8zm859-5-29-12 12-8 12-7v-259h72l-6 16c-3 9-6 76-6 150v134h-12c-7-1-26-7-43-14zM143 1611l-30-19-6-28-5-28 9-22c9-24 56-61 65-51 3 3 1 14-5 25-14 26-14 73-1 108 14 35 10 37-27 15zm104-11 15-32-5-36c-3-21-8-45-12-54l-7-18h10c5 0 21 9 36 21l26 20v77l-17 20c-10 11-28 23-40 27l-22 6 16-31zm206 12 17-19v-139l12-12c7-7 22-12 35-12h23v9c0 6-5 13-11 16l-10 7 6 27 6 28-10 44-10 43-17 13c-10 7-27 13-37 13h-20l16-18zm271-1 18-19-4-81-3-81h70l-3 62c-3 81-8 103-28 122l-15 16h-52l17-19zm146-3v-21l20 18c11 10 20 20 20 22 0 1-9 3-20 3h-20v-22zm40-78-50-100h55l48 90c26 49 47 94 47 99v11h-50l-50-100zm464 90c-12-5-29-19-38-32l-16-22v-39c0-21 5-47 11-59l11-20 35-14 35-15 34 11c43 14 44 25 2 26l-32 1-18 23-18 22v32c1 17 7 42 15 56 24 41 20 47-21 30zm70-46 1-54h65v23c0 26-23 63-49 76l-18 10 1-55zm206 51c0-3 8-17 17-31l16-26v-86l-17-26-16-26h41l24 25 25 24v41c0 52-13 76-50 95-31 16-40 18-40 10zm181-9c-31-17-50-53-51-93v-31l25-30 25-30 27-5 28-5 30 13 30 13-17 1c-9 1-28 6-42 12l-25 12-12 29-12 29 12 37c7 20 15 43 17 50l6 12h-9c-4-1-19-7-32-14zm76-13c4-16 7-40 7-55l-1-28h57v61l-25 24c-13 14-29 25-35 25h-10l7-27zm237 8 18-19-4-81-3-81h70l-7 83c-3 45-7 83-7 84-1 1-8 9-17 17l-15 16h-52l17-19zm181 10c-11-5-29-19-40-31l-20-22v-86l24-26 24-26h50l-17 19-18 19-5 41-6 40 22 41c21 41 20 44-14 31zm415 2c-8-3-25-15-37-26l-23-20v-68l25-24c13-14 31-25 39-25h14l-16 41-16 41 16 44c8 24 15 44 14 43l-16-6zm76-10c4-10 9-37 12-59l4-42-12-22c-14-26-8-34 19-25l21 6 15 29c8 16 15 39 15 50v22l-29 29c-16 16-35 29-41 29h-12l8-17zm-2191-4-20-10v-169h77l-6 16c-3 9-6 51-6 95v79l-12-1c-7 0-22-5-33-10zm1420 0-20-10v-169h77l-6 16c-3 9-6 51-6 95v79l-12-1c-7 0-22-5-33-10zm533-1-28-10 10-18 10-19v-107l-12-12-12-12h87l-7 31c-3 17-6 60-6 95v64l-7-1c-5 0-20-5-35-11zm-2202-89-26-20v-47l13-11c8-6 24-12 38-13l24-3-4 15c-7 23-5 63 3 83l8 17h-15c-8 0-26-9-41-21zm610-74-20-15h44v15c0 18 0 18-24 0zm-870-21-6-15 10-18c11-21 42-34 118-51l52-12v-30l13 4 12 5 3 24 3 25-19 17-18 16-69 15-70 15-3 10c-5 16-19 13-26-5zm2579 6-7-11 6-24 6-24 52-16c28-8 60-15 70-15s27-9 37-19l20-20 11 14 12 14-7 21-7 22-31 13c-18 7-52 16-77 20l-45 7-17 15-16 14-7-11zM125 1319l-7-10 18-20 17-19h40l-16 18c-10 10-17 24-17 30v12h-14c-8 0-18-5-21-11zm2575-7c0-10 5-23 12-30l12-12 26 1 25 1-13 5c-7 3-17 16-22 29l-10 24h-30v-18z"/></g><g fill="#aaa483" transform="matrix(.1 0 0 -.1 0 300)"><path d="m1225 1719-20-10v-279h76l-11 19-10 20v261l-7-1c-5 0-17-5-28-10zm333-1-28-10 10-18 10-19v-217l12-12c7-7 18-12 25-12h13v300l-7-1c-5 0-20-5-35-11zm864 0-23-11 6-15c3-7 5-70 5-138v-124h71l-11 19-10 20v261l-7-1c-5 0-18-5-31-11zm-1969-99 17-10v-140l10-20 11-19h53l-12 12-12 12v135l-26 20c-15 12-34 21-43 21l-16-1 18-10zm271-8 18-19-4-81-3-81h76l-11 19-10 20v128l-18 16-19 17h-46l17-19zm238 7c-11-15-92-175-92-183 0-4 10-5 23-3l22 3 47 90c26 50 47 93 48 98 0 12-37 8-48-5zm1182-7 18-19-4-81-3-81h76l-11 19-10 20v128l-18 16-19 17h-46l17-19zm-2012-14-22-23v-73l26-20c15-12 30-21 35-21h9l-10 26c-13 33-13 90 0 115l11 19h-14c-7 0-23-10-35-23zm119 2 11-21-4-42c-3-22-8-49-12-58l-8-18h11c7 0 23 11 36 25l25 24v67l-20 22c-12 12-28 22-36 22h-15l12-21zm377 9-28-10 10-18c6-10 10-40 10-65v-46l-10-20-11-19h76l-3 95c-2 52-6 95-10 94-4 0-19-5-34-11zm242 2c0-5 4-10 9-10 6 0 13 5 16 10l6 10h-15c-9 0-16-4-16-10zm492 3c-19-7-42-58-42-93v-32l29-29 29-29h81l6 10 6 10h-19c-11 0-32 10-47 21l-27 22 4 46c3 25 8 54 12 64l8 17-13-1c-8 0-20-3-27-6zm86-38 4-45h60l-7 28c-7 30-32 62-49 62h-11l3-45zm223 8c10-21 19-49 19-63v-25l-20-32-20-33h14c28 0 47 13 61 41 34 65 1 149-60 149h-13l19-37zm138 11-24-26v-90l28-24 28-24h37c20 0 44 5 52 10l15 10h-56l-24 25-25 24v31c0 17 7 44 15 60l16 30h-38l-24-26zm105 4c3-13 6-33 6-45v-23h50v19c0 21-36 71-52 71h-10l6-22zm134 10-28-10 10-18c6-10 10-40 10-65v-46l-10-20-11-19h76l-3 95c-2 52-6 95-10 94-4 0-19-5-34-11zm253-5-21-18-8-30-9-30 9-32 8-32 22-16c13-8 28-15 35-15h14l-16 30-15 29v72l15 29 16 30h-15c-7 0-23-8-35-17zm277 3-28-12 11-11 11-11-4-71-4-71h68l-6 23c-3 12-6 55-6 95v72l-7-1c-5 0-20-6-35-13zm127-11-25-24v-57l15-21c8-11 24-23 35-26l21-5-8 21c-10 28-10 97 1 120l8 17h-11c-7 0-23-11-36-25zm113 13c5-7 13-27 16-44l7-32-15-36-15-36h9c5 0 20 10 34 23l25 22 2 20c4 52-21 95-57 95h-16l10-12zm-2443-93c-28-27-30-37-15-66l11-19h63l-12 12c-15 15-16 53-2 79l11 19h-16c-9 0-27-11-40-25zm615-70-12-15h32v15c0 8-2 15-4 15s-9-7-16-15zm-863-11c-4-4-7-17-7-29v-22l23-11c12-6 49-18 82-26l60-15 12-17 12-16 7 27 7 28-21 17-21 18-66 12-65 12-8 14-8 15-7-7zm2566-10-6-17 10-16 10-16 54-17c30-9 66-19 82-23l27-5v-31l10 6c6 3 10 17 10 30v24l-22 15c-12 9-49 21-81 27l-58 12-15 14-14 14-7-17zM130 1310v-19l19-11c11-5 25-10 31-10h11l-15 16c-9 8-16 22-16 30v14h-30v-20zm2570 0v-19l19-11c11-5 24-10 30-10h10l-17 30-17 30h-25v-20z"/></g><g fill="#8a8053" transform="matrix(.1 0 0 -.1 0 300)"><path d="m1228 1718-28-10 10-18 10-19v-202l-10-20-11-19h66l-3 117c-1 65-3 132-5 149l-2 31-27-9zm328-3-29-12 12-7 11-7v-228l18-17 17-18 3 77c2 42 2 110 0 150l-3 74-29-12zm872 3-28-10 10-18 10-19v-241h62l-10 13-11 13-3 136-3 135-27-9zM136 1597l-26-26v-61l20-20c11-11 25-20 30-20 12 0 12 0-1 38l-10 30 10 38c13 48 8 52-23 21zm121-4c9-35 9-61 0-95l-7-28h8c4 0 16 6 25 13l17 12 6 35 6 35-22 28c-12 15-26 27-31 27h-9l7-27zm213 1 10-25v-127l16-6c9-3 19-6 23-6h7l-4 73-4 72-14 23-14 22h-30l10-26zm271 5 11-22-4-73-3-74h50l-3 78c-3 42-8 85-13 95l-10 17h-40l12-21zm176-68c-26-48-47-91-47-95 0-3 9-6 20-6h20l45 90c25 49 45 92 45 95s-8 5-18 5h-17l-48-89zm432 63-24-26v-90l28-24 28-24h32c18 0 39 5 47 10l15 10h-55l-20 20c-11 11-22 31-26 45l-7 26 16 40 15 39h-12c-7 0-23-12-37-26zm105 4c3-13 6-33 6-45v-23h40v21c0 27-16 55-36 63l-16 6 6-22zm221-8 15-29v-72l-15-29-16-30h10c6 0 23 11 38 24l28 24v94l-28 24c-15 13-32 24-38 24h-10l16-30zm140 5-25-24v-91l20-20c11-11 31-22 45-26l25-6 28 8 27 8-25 4c-14 2-35 13-48 25l-24 22 4 45c3 25 8 53 12 63l8 17h-11c-7 0-23-11-36-25zm99 9c3-9 6-29 6-45v-29h52l-7 28c-7 29-32 62-48 62h-9l6-16zm247-5 11-22-4-73-3-74h50l-3 78c-3 42-8 85-13 95l-10 17h-40l12-21zm148 8c-34-26-49-88-33-132 6-14 53-45 69-45 3 0-2 12-11 26l-17 26v86l17 26 16 26h-12c-7 0-20-6-29-13zm281 0-25-9v-168h60l-3 78c-1 42-4 84-5 92l-2 16-25-9zm121-4-21-18-6-30-6-30 22-28c12-15 25-27 30-27h9l-6 53-5 54 11 21 12 22h-10c-5 0-18-8-30-17zm114 0c4-10 10-30 13-45l4-27-10-31-11-30h14c8 0 21 10 29 22l16 22v63l-23 21c-13 12-27 22-31 22h-8l7-17zm-2200-1-10-7v-165h58l-7 31c-3 17-6 58-6 90v59h-12c-7 0-17-4-23-8zm1420 0-10-7v-165h58l-7 31c-3 17-6 58-6 90v59h-12c-7 0-17-4-23-8zm-1650-74c-27-15-35-28-35-59v-27l16-6c9-3 25-6 37-6h21l-12 12c-15 15-16 53-2 79l11 19h-8c-4 0-17-6-28-12zm590-88-6-10h10c6 0 11 5 11 10 0 6-2 10-4 10-3 0-8-4-11-10zm-865-30v-20l23-14c12-8 48-19 79-26l58-11 14-14c16-16 26-10 26 16v18l-27 15c-16 7-54 19-85 26-32 6-60 16-63 21-4 5-10 9-16 9h-9v-20zm2575 11-6-11 10-18 10-19 48-13c26-6 62-16 80-22l32-9 4-17 4-17 8 28 8 29-16 15-15 15-68 14c-37 8-73 19-80 25l-12 10-7-10zM134 1315c-7-18 1-31 24-37l19-5-14 28c-16 33-21 35-29 14zm2571 5c-8-13 1-27 26-41l20-10-16 30c-17 34-21 36-30 21z"/></g></g></svg>